<svg version="1.2" xmlns="http://www.w3.org/2000/svg" viewBox="0 0 377 88" width="377" height="88"><defs><clipPath clipPathUnits="userSpaceOnUse" id="cp1"><path d="m443.49-65.74l-0.37 360.51-509.31-0.53 0.38-360.5z"/></clipPath><clipPath clipPathUnits="userSpaceOnUse" id="cp2"><path d="m443.49-65.74l-0.37 360.51-509.31-0.53 0.38-360.5z"/></clipPath><clipPath clipPathUnits="userSpaceOnUse" id="cp3"><path d="m443.49-65.74l-0.37 360.51-509.31-0.53 0.38-360.5z"/></clipPath><clipPath clipPathUnits="userSpaceOnUse" id="cp4"><path d="m443.49-65.74l-0.37 360.51-509.31-0.53 0.38-360.5z"/></clipPath><clipPath clipPathUnits="userSpaceOnUse" id="cp5"><path d="m443.49-65.74l-0.37 360.51-509.31-0.53 0.38-360.5z"/></clipPath><clipPath clipPathUnits="userSpaceOnUse" id="cp6"><path d="m443.49-65.74l-0.37 360.51-509.31-0.53 0.38-360.5z"/></clipPath><clipPath clipPathUnits="userSpaceOnUse" id="cp7"><path d="m443.49-65.74l-0.37 360.51-509.31-0.53 0.38-360.5z"/></clipPath><clipPath clipPathUnits="userSpaceOnUse" id="cp8"><path d="m443.49-65.74l-0.37 360.51-509.31-0.53 0.38-360.5z"/></clipPath><clipPath clipPathUnits="userSpaceOnUse" id="cp9"><path d="m443.49-65.74l-0.37 360.51-509.31-0.53 0.38-360.5z"/></clipPath></defs><style>.a{fill:#3b3a3b}.b{fill:#d64a29}.c{fill:#fff}</style><g clip-path="url(#cp1)"><path class="a" d="m208.1 226.1q3.1 3.1 7.8 3.1 3.8 0 6.4-1.9 2.6-1.9 3.3-4.4l-3-0.8q-0.6 1.7-2.4 2.9-1.8 1.3-4.3 1.3-3.4 0-5.6-2.4-2.2-2.4-2.1-5.7 0-3.4 2.1-5.7 2.2-2.4 5.6-2.4 2.4 0 4.3 1.3 1.8 1.3 2.4 3l3-0.8q-0.7-2.5-3.3-4.5-2.7-1.9-6.4-1.9-4.7 0-7.8 3.1-3.1 3.2-3.1 7.8 0 4.8 3.1 8zm-10.7-23q0.6 0.7 1.6 0.7 0.9 0 1.6-0.7 0.6-0.6 0.6-1.6 0-0.8-0.7-1.5-0.6-0.6-1.5-0.6-1 0-1.6 0.6-0.7 0.7-0.7 1.5 0 1 0.7 1.6zm-0.1 25.6h3.3v-21h-3.3zm-7.7-19.1q-2.3-2.4-6.2-2.4-2.6 0-4.6 1.1-2 1.2-3.2 3.1v-3.7h-3.2v21h3.2v-10.6q0-3.5 2-5.7 1.9-2.2 5.1-2.2 2.8 0 4.4 1.7 1.5 1.8 1.5 4.9v11.9h3.2v-12.3q0-4.3-2.2-6.8zm-25 0q-2.2-2.4-6.2-2.5-2.6 0-4.6 1.2-2 1.2-3.1 3v-13.4h-3.3v30.7h3.2v-10.5q0.1-3.6 2-5.7 1.9-2.2 5.1-2.2 2.9 0 4.4 1.7 1.5 1.8 1.5 4.9v11.8l3.2 0.1 0.1-12.4q0-4.3-2.3-6.7zm-39 16.4q3.1 3.2 7.8 3.2 3.8 0 6.4-2 2.7-1.9 3.4-4.4l-3.1-0.8q-0.5 1.7-2.3 3-1.9 1.2-4.4 1.2-3.4 0-5.5-2.4-2.2-2.3-2.2-5.7 0-3.3 2.2-5.7 2.1-2.4 5.6-2.4 2.4 0 4.2 1.3 1.9 1.4 2.4 3.1l3.1-0.9q-0.7-2.4-3.4-4.4-2.6-2-6.3-2-4.7 0-7.9 3.2-3.1 3.1-3.1 7.8 0 4.7 3.1 7.9zm-24.4 0.1q3 3 7.9 3 3.7 0.1 6.2-1.7 2.6-1.7 3.7-4.3l-2.9-0.9q-0.9 1.8-2.6 2.9-1.8 1.2-4.4 1.2-3.4 0-5.5-2-2.1-2-2.3-5.2h17.9q0.1-0.5 0.1-1.5 0-4.5-2.8-7.5-2.8-3-7.7-3-4.7 0-7.7 3.1-3 3.2-3 7.9 0 5 3.1 8zm0.1-9.4q0.2-2.8 2.3-4.8 2-1.9 5.2-1.9 3.2 0 5.1 1.8 2 1.9 2.2 4.9zm-6.1 8.4q-1.4 0.8-3 0.8-3.4 0-3.4-3.7v-11.7h7.3v-2.9h-7.3l0.1-7.3h-3.3v7.3l-4.1-0.1v3h4.1v11.7q0 3.1 1.5 4.8 1.6 1.8 4.6 1.8 2.3 0 4.4-0.9zm-19.3-17.6l-7.3 17-7.7-17h-3.6l9.7 20.6-4 9.2h3.4l13-29.8zm-25 21h3.2l0.1-30.7h-3.3zm-23.4-2.7q3.2 3.2 7.9 3.2 4.8 0 7.9-3.2 3.2-3.1 3.2-7.8 0-4.7-3.2-7.9-3.1-3.1-7.9-3.1-4.7 0-7.9 3.1-3.2 3.1-3.2 7.8 0 4.8 3.2 7.9zm13.5-2.1q-2.2 2.3-5.6 2.3-3.4 0-5.6-2.3-2.3-2.3-2.3-5.7 0-3.5 2.3-5.8 2.2-2.3 5.6-2.3 3.4 0 5.7 2.3 2.2 2.3 2.2 5.8 0 3.5-2.3 5.7zm-21.2-21.8q-2.6-2.9-7-2.9h-13v29.4h3.3v-10.4h9.5q4.5 0 7.2-2.9 2.6-2.8 2.6-6.6 0-3.7-2.6-6.6zm-2.4 11.1q-1.9 2-4.9 2l-9.4-0.1v-12.8h9.6q2.8 0 4.6 1.9 1.9 1.9 1.9 4.5 0 2.6-1.8 4.5zm259.9-28.6h3.4v-29.5h-3.3zm-6.8-29.4l-10 25.3-10-25.3h-3.6l11.8 29.4h3.5l11.9-29.4zm-41.3-1.3v13.5q-2.8-4.3-8.3-4.3-4.5 0-7.5 3.1-3.1 3.2-3.1 7.9 0 4.7 3 7.9 3.1 3.1 7.6 3.1 5.6 0 8.3-4.3v3.8h3.2l0.1-30.7zm-2.3 26q-2.3 2.3-5.6 2.3-3.5 0-5.6-2.3-2.3-2.3-2.3-5.8 0-3.5 2.3-5.8 2.2-2.3 5.6-2.3 3.3 0 5.6 2.4 2.3 2.3 2.3 5.7 0 3.5-2.3 5.8zm-38 2.2q3.1 3 8 3 3.7 0 6.2-1.7 2.5-1.8 3.7-4.3l-3-0.9q-0.8 1.8-2.6 2.9-1.8 1.1-4.3 1.1-3.5 0-5.6-1.9-2.1-2-2.3-5.2h17.9q0.1-0.6 0.1-1.5 0-4.5-2.8-7.6-2.8-2.9-7.7-2.9-4.7 0-7.7 3.1-3 3.1-3 7.8 0 5.1 3.1 8.1zm0.1-9.4q0.2-2.8 2.3-4.8 2.1-2 5.2-2 3.2 0 5.2 1.9 1.9 1.8 2.1 4.9zm-9.6-7.3q-2.2-2.4-6-2.4-5.2 0-7.5 4.1-2-4.1-6.8-4.1-4.6 0-7 4l0.1-3.5h-3.3v21h3.2v-10.7q0-3.5 1.8-5.7 1.7-2.1 4.5-2.1 2.5 0 3.9 1.7 1.3 1.7 1.3 4.7v12.1h3.2v-11.2q0-3.3 1.7-5.3 1.7-2 4.3-1.9 2.7 0 4.1 1.6 1.4 1.7 1.4 4.7v12.1h3.2v-12.6q0.1-4.2-2.1-6.5zm-38.2-0.1q-2.2-2.3-6-2.3-5.2 0-7.5 4-2-4-6.7-4-4.7-0.1-7 3.9v-3.4h-3.3v20.9l3.3 0.1v-10.8q0-3.5 1.7-5.6 1.8-2.1 4.5-2.1 2.6 0 3.9 1.7 1.3 1.7 1.3 4.7v12.1h3.2v-11.3q0-3.3 1.7-5.2 1.7-2 4.4-2 2.7 0 4.1 1.7 1.3 1.6 1.3 4.7v12.1h3.3v-12.6q0-4.2-2.2-6.6zm-55.2 16.5q3 3.2 7.5 3.2 5.6 0 8.3-4.4v3.8h3.2l0.1-20.9h-3.3v3.7q-2.8-4.3-8.3-4.3-4.5 0-7.5 3.2-3.1 3.1-3.1 7.8 0 4.7 3.1 7.9zm13.6-2.1q-2.3 2.3-5.6 2.3-3.5 0-5.6-2.3-2.3-2.3-2.3-5.7 0-3.6 2.3-5.9 2.2-2.2 5.6-2.2 3.3 0 5.6 2.3 2.3 2.3 2.3 5.8 0 3.4-2.3 5.7zm-23.1-14.3q-2.2-2.5-6.2-2.5-2.6 0-4.6 1.2-2 1.1-3.1 3v-13.4h-3.2l-0.1 30.7h3.2l0.1-10.6q0-3.5 1.9-5.7 2-2.2 5.1-2.2 2.9 0 4.4 1.8 1.5 1.7 1.5 4.8v11.9h3.2l0.1-12.3q0-4.3-2.3-6.7zm-40.6 16.3q3.1 3.2 7.9 3.2 4.7 0 7.9-3.1 3.1-3.2 3.1-7.9 0-4.7-3.1-7.9-3.2-3.1-7.9-3.1-4.8 0-7.9 3.1-3.2 3.1-3.2 7.9 0 4.7 3.2 7.8zm13.5-2.1q-2.2 2.3-5.6 2.3-3.4 0-5.7-2.3-2.3-2.3-2.3-5.7 0.1-3.5 2.3-5.8 2.3-2.3 5.7-2.3 3.4 0 5.6 2.3 2.3 2.4 2.3 5.8 0 3.5-2.3 5.7zm-24.6-24.7l-10.9 15.7-11-15.7h-3.2v29.4h3.3l0.1-23.6 10.8 15.3 10.8-15.3v23.7h3.3v-29.5zm161.7-35.7l-7.3 17-7.7-17h-3.6l9.7 20.6-4 9.2h3.4l13-29.8zm-21.9 17.6q-1.5 0.7-3 0.7-3.4 0-3.4-3.7v-11.7h7.2v-2.9h-7.2v-7.2h-3.2v7.2h-4.2v2.9h4.2v11.7q0 3.1 1.5 4.9 1.5 1.8 4.6 1.8 2.2 0 4.4-1zm-20.5-22.1q0.7 0.7 1.6 0.6 1 0.1 1.6-0.6 0.6-0.6 0.6-1.6 0.1-0.9-0.6-1.5-0.6-0.6-1.6-0.6-0.9 0-1.5 0.6-0.7 0.6-0.7 1.5 0 1 0.6 1.6zm0 25.5h3.2v-20.9l-3.2-0.1zm-19.2-1.3q2.7 1.9 6.2 1.9 3.6 0 6.1-1.9 2.4-1.8 2.4-4.5 0-2.3-1.3-3.6-1.4-1.2-3.8-1.9l-6-1.8q-2.8-0.8-2.8-2.5 0-1.2 1.2-2.2 1.3-0.9 3.2-0.9 2.2 0 3.8 0.9 1.6 1 2.2 2.4l3-0.8q-1-2.3-3.3-3.8-2.4-1.5-5.6-1.5-3.2 0-5.5 1.8-2.2 1.7-2.2 4.1 0 3.7 4.9 5.1l5.9 1.8q1.7 0.5 2.4 1.1 0.7 0.7 0.7 1.9 0 1.5-1.5 2.5-1.4 1-3.8 1-2.4 0-4.2-1.3-1.8-1.2-2.4-3.1l-3.1 0.8q0.8 2.7 3.5 4.5zm-9.7-19.3q-2 1.1-2.9 3.2v-3.6h-3.3v21h3.2v-9.8q0.1-4.8 2.1-6.8 2-2.1 5.5-1.6v-3q-2.7-0.4-4.6 0.6zm-28.8 18.1q3 3.1 7.9 3.1 3.7 0 6.3-1.8 2.5-1.7 3.7-4.3l-3-0.9q-0.9 1.8-2.6 2.9-1.8 1.2-4.4 1.2-3.4 0-5.5-2-2.1-2-2.3-5.2h17.9q0.1-0.5 0.1-1.5 0-4.5-2.8-7.5-2.8-3-7.7-3-4.7 0-7.7 3.1-3 3.2-3 7.9 0 5 3.1 8zm0.1-9.4q0.2-2.8 2.3-4.8 2-1.9 5.2-1.9 3.2 0 5.2 1.8 1.9 1.9 2.1 4.9zm-7.6-9.1l-7.4 17.4-7.4-17.4h-3.5l9.1 20.9h3.5l9.2-20.9zm-24.8-4.6q0.7 0.7 1.6 0.6 1 0.1 1.6-0.6 0.6-0.6 0.6-1.6 0-0.9-0.6-1.5-0.7-0.6-1.6-0.6-0.9 0-1.6 0.6-0.6 0.6-0.6 1.5 0 1 0.6 1.6zm0 25.5h3.2v-20.9l-3.2-0.1zm-7.8-19q-2.2-2.5-6.1-2.5-2.6 0-4.6 1.2-2 1.2-3.2 3v-3.7h-3.2l-0.1 21h3.3v-10.5q0-3.6 1.9-5.8 2-2.1 5.1-2.1 2.9 0 4.4 1.7 1.5 1.8 1.5 4.9v11.8h3.3v-12.3q0-4.3-2.3-6.7zm-22.7-10.4v17.7q0 5.6-3.3 8.9-3.2 3.4-8.9 3.4-5.6 0-8.9-3.4-3.2-3.4-3.2-8.9v-17.8h3.5l-0.1 17.7q0 4.2 2.3 6.7 2.2 2.5 6.4 2.5 4.3 0 6.5-2.5 2.3-2.5 2.3-6.7v-17.6z"/></g><g clip-path="url(#cp2)"><path fill-rule="evenodd" class="b" d="m87.8-0.3l-0.1 87.8h-87.8l0.1-87.8z"/></g><g clip-path="url(#cp3)"><path class="c" d="m67.2 17.5v30.7q0 10.4-6.2 16.7-6.1 6.3-17.2 6.3-11.1 0-17.2-6.3-6.2-6.3-6.2-16.7l0.1-30.8h12.6v30.6q0 5.2 2.7 8.5 2.7 3.2 8 3.2 5.3 0 8-3.2 2.8-3.2 2.8-8.5v-30.6z"/></g><g clip-path="url(#cp4)"><path fill-rule="evenodd" class="b" d="m184.4-0.2l-0.1 87.8h-87.8l0.1-87.8z"/></g><g clip-path="url(#cp5)"><path fill-rule="evenodd" class="b" d="m281-0.1l-0.1 87.8h-87.8l0.1-87.8z"/></g><g clip-path="url(#cp6)"><path fill-rule="evenodd" class="b" d="m377.6 0l-0.1 87.8h-87.8l0.1-87.8z"/></g><g clip-path="url(#cp7)"><path class="c" d="m168.5 17.4l-0.1 52.7h-12.5v-30.9l-15.5 21.1-15.4-21.1v30.8h-12.5l0.1-52.7h11.8l16.1 23.5 16.1-23.4z"/></g><g clip-path="url(#cp8)"><path class="c" d="m252.4 39.6q5.2 5.2 5.2 12.8 0 8.2-5.9 13.6-5.9 5.4-14.7 5.4-8.8 0-14.6-5.4-5.9-5.4-5.9-13.6 0-5.2 3.7-11.2l15-23.6h14.1l-10.3 16.3q8.2 0.6 13.4 5.7zm-9.4 18.5q2.2-2.2 2.2-5.7 0-3.3-2.2-5.5-2.2-2.2-5.9-2.2-3.6 0-5.9 2.2-2.3 2.2-2.3 5.5 0 3.5 2.2 5.7 2.3 2.1 6 2.1 3.6 0.1 5.9-2.1z"/></g><g clip-path="url(#cp9)"><path class="c" d="m350.5 23.4q5.3 5.8 5.3 13.1-0.1 7.5-5.4 13.3-5.3 5.7-14.1 5.7h-12.4l-0.1 14.7h-12.3v-52.7l25.4 0.1q8.4 0 13.6 5.8zm-9 18.6q2.1-2.3 2.1-5.4 0-3.1-2-5.4-2-2.3-5-2.3h-12.7v15.4h12.2q3.3 0 5.4-2.3z"/></g></svg>